<mxfile host="app.diagrams.net" modified="2025-03-02T18:52:13.756Z" agent="Mozilla/5.0 (Macintosh; Intel Mac OS X 10_15_7) AppleWebKit/537.36 (KHTML, like Gecko) Chrome/133.0.0.0 Safari/537.36" etag="V1QpKf0mEI1PNflhySCe" version="24.6.4" type="device" pages="3">
  <diagram id="l1EqbOQ8RJ6dvfELSKfM" name="High level overviw">
    <mxGraphModel dx="1434" dy="714" grid="1" gridSize="10" guides="1" tooltips="1" connect="1" arrows="1" fold="1" page="1" pageScale="1" pageWidth="827" pageHeight="1169" math="0" shadow="0">
      <root>
        <mxCell id="0" />
        <mxCell id="1" parent="0" />
        <mxCell id="0EHNzAy4hEEurDzkMecc-19" value="" style="rounded=0;whiteSpace=wrap;html=1;shadow=0;glass=0;labelBackgroundColor=default;labelBorderColor=none;sketch=0;fillColor=default;" vertex="1" parent="1">
          <mxGeometry width="1123" height="150" as="geometry" />
        </mxCell>
        <mxCell id="0EHNzAy4hEEurDzkMecc-57" style="edgeStyle=orthogonalEdgeStyle;rounded=0;orthogonalLoop=1;jettySize=auto;html=1;entryX=0;entryY=0.5;entryDx=0;entryDy=0;startArrow=classic;startFill=1;exitX=1;exitY=0.5;exitDx=0;exitDy=0;" edge="1" parent="1" source="0EHNzAy4hEEurDzkMecc-43" target="0EHNzAy4hEEurDzkMecc-54">
          <mxGeometry relative="1" as="geometry" />
        </mxCell>
        <mxCell id="0EHNzAy4hEEurDzkMecc-43" value="Production VM" style="rounded=1;whiteSpace=wrap;html=1;fillColor=#f8cecc;strokeColor=#b85450;" vertex="1" parent="1">
          <mxGeometry x="443" y="34.010000000000005" width="120" height="60" as="geometry" />
        </mxCell>
        <mxCell id="0EHNzAy4hEEurDzkMecc-52" style="edgeStyle=orthogonalEdgeStyle;rounded=0;orthogonalLoop=1;jettySize=auto;html=1;entryX=0;entryY=0.5;entryDx=0;entryDy=0;startArrow=classic;startFill=1;" edge="1" parent="1" source="0EHNzAy4hEEurDzkMecc-44" target="0EHNzAy4hEEurDzkMecc-43">
          <mxGeometry relative="1" as="geometry" />
        </mxCell>
        <mxCell id="0EHNzAy4hEEurDzkMecc-44" value="Web Browser" style="sketch=0;pointerEvents=1;shadow=0;dashed=0;html=1;strokeColor=none;fillColor=#434445;aspect=fixed;labelPosition=center;verticalLabelPosition=bottom;verticalAlign=top;align=center;outlineConnect=0;shape=mxgraph.vvd.web_browser;" vertex="1" parent="1">
          <mxGeometry x="182.75" y="40.129999999999995" width="67.25" height="47.75" as="geometry" />
        </mxCell>
        <mxCell id="0EHNzAy4hEEurDzkMecc-47" value="" style="endArrow=none;dashed=1;html=1;rounded=0;" edge="1" parent="1">
          <mxGeometry width="50" height="50" relative="1" as="geometry">
            <mxPoint x="343" y="150" as="sourcePoint" />
            <mxPoint x="343" as="targetPoint" />
          </mxGeometry>
        </mxCell>
        <mxCell id="0EHNzAy4hEEurDzkMecc-48" value="public internet" style="text;html=1;strokeColor=none;fillColor=none;align=center;verticalAlign=middle;whiteSpace=wrap;rounded=0;" vertex="1" parent="1">
          <mxGeometry x="243" y="120" width="100" height="30" as="geometry" />
        </mxCell>
        <mxCell id="0EHNzAy4hEEurDzkMecc-51" value="datacenter network - vm provider" style="text;html=1;strokeColor=none;fillColor=none;align=center;verticalAlign=middle;whiteSpace=wrap;rounded=0;" vertex="1" parent="1">
          <mxGeometry x="465" y="120" width="189" height="30" as="geometry" />
        </mxCell>
        <mxCell id="0EHNzAy4hEEurDzkMecc-53" value="" style="endArrow=none;dashed=1;html=1;rounded=0;" edge="1" parent="1">
          <mxGeometry width="50" height="50" relative="1" as="geometry">
            <mxPoint x="703" y="150" as="sourcePoint" />
            <mxPoint x="703" as="targetPoint" />
          </mxGeometry>
        </mxCell>
        <mxCell id="0EHNzAy4hEEurDzkMecc-54" value="S3 (AWS)" style="rounded=1;whiteSpace=wrap;html=1;fillColor=#fff2cc;strokeColor=#d6b656;" vertex="1" parent="1">
          <mxGeometry x="739" y="34" width="120" height="60" as="geometry" />
        </mxCell>
        <mxCell id="0EHNzAy4hEEurDzkMecc-60" style="edgeStyle=orthogonalEdgeStyle;rounded=0;orthogonalLoop=1;jettySize=auto;html=1;entryX=0.5;entryY=1;entryDx=0;entryDy=0;startArrow=classic;startFill=1;" edge="1" parent="1" source="0EHNzAy4hEEurDzkMecc-55" target="0EHNzAy4hEEurDzkMecc-43">
          <mxGeometry relative="1" as="geometry">
            <Array as="points">
              <mxPoint x="949" y="110" />
              <mxPoint x="503" y="110" />
            </Array>
          </mxGeometry>
        </mxCell>
        <mxCell id="0EHNzAy4hEEurDzkMecc-55" value="Docker Hub" style="rounded=1;whiteSpace=wrap;html=1;fillColor=#dae8fc;strokeColor=#6c8ebf;" vertex="1" parent="1">
          <mxGeometry x="889" y="33.88" width="120" height="60" as="geometry" />
        </mxCell>
        <mxCell id="0EHNzAy4hEEurDzkMecc-59" value="public internet" style="text;html=1;strokeColor=none;fillColor=none;align=center;verticalAlign=middle;whiteSpace=wrap;rounded=0;" vertex="1" parent="1">
          <mxGeometry x="703" y="122" width="100" height="30" as="geometry" />
        </mxCell>
        <mxCell id="0EHNzAy4hEEurDzkMecc-61" value="High level overview" style="text;html=1;strokeColor=none;fillColor=none;align=left;verticalAlign=middle;whiteSpace=wrap;rounded=0;shadow=0;glass=0;labelBackgroundColor=default;labelBorderColor=none;sketch=0;fontStyle=1" vertex="1" parent="1">
          <mxGeometry x="3" width="190" height="30" as="geometry" />
        </mxCell>
      </root>
    </mxGraphModel>
  </diagram>
  <diagram id="OI6SaQRYEeHismhC4aXl" name="Inside production vm">
    <mxGraphModel dx="1434" dy="657" grid="1" gridSize="10" guides="1" tooltips="1" connect="1" arrows="1" fold="1" page="1" pageScale="1" pageWidth="827" pageHeight="1169" math="0" shadow="0">
      <root>
        <mxCell id="0" />
        <mxCell id="1" parent="0" />
        <mxCell id="t8b2_5bpY0gWvRRcbJ14-1" value="" style="rounded=0;whiteSpace=wrap;html=1;shadow=0;glass=0;labelBackgroundColor=default;labelBorderColor=none;sketch=0;fillColor=default;" vertex="1" parent="1">
          <mxGeometry width="1119" height="360" as="geometry" />
        </mxCell>
        <mxCell id="t8b2_5bpY0gWvRRcbJ14-2" value="" style="rounded=0;whiteSpace=wrap;html=1;fillColor=#f8cecc;strokeColor=#b85450;sketch=0;shadow=0;glass=0;" vertex="1" parent="1">
          <mxGeometry x="120" y="30" width="829" height="310" as="geometry" />
        </mxCell>
        <mxCell id="t8b2_5bpY0gWvRRcbJ14-3" value="" style="rounded=0;whiteSpace=wrap;html=1;shadow=0;glass=0;dashed=1;labelBackgroundColor=default;labelBorderColor=none;sketch=0;fillColor=none;" vertex="1" parent="1">
          <mxGeometry x="120" y="160" width="829" height="130" as="geometry" />
        </mxCell>
        <mxCell id="t8b2_5bpY0gWvRRcbJ14-4" value="" style="rounded=0;whiteSpace=wrap;html=1;fillColor=#ffe6cc;strokeColor=#d79b00;" vertex="1" parent="1">
          <mxGeometry x="130" y="170" width="609" height="100" as="geometry" />
        </mxCell>
        <mxCell id="t8b2_5bpY0gWvRRcbJ14-5" style="edgeStyle=orthogonalEdgeStyle;rounded=0;orthogonalLoop=1;jettySize=auto;html=1;entryX=1;entryY=0.5;entryDx=0;entryDy=0;strokeWidth=1;startArrow=classic;startFill=1;" edge="1" parent="1" source="t8b2_5bpY0gWvRRcbJ14-7" target="t8b2_5bpY0gWvRRcbJ14-4">
          <mxGeometry relative="1" as="geometry" />
        </mxCell>
        <mxCell id="t8b2_5bpY0gWvRRcbJ14-6" style="edgeStyle=orthogonalEdgeStyle;rounded=0;orthogonalLoop=1;jettySize=auto;html=1;strokeWidth=1;startArrow=classic;startFill=1;" edge="1" parent="1" source="t8b2_5bpY0gWvRRcbJ14-7" target="t8b2_5bpY0gWvRRcbJ14-23">
          <mxGeometry relative="1" as="geometry" />
        </mxCell>
        <mxCell id="t8b2_5bpY0gWvRRcbJ14-7" value="docker-compose" style="rounded=0;whiteSpace=wrap;html=1;fillColor=#e1d5e7;strokeColor=#9673a6;" vertex="1" parent="1">
          <mxGeometry x="769" y="170" width="120" height="100" as="geometry" />
        </mxCell>
        <mxCell id="t8b2_5bpY0gWvRRcbJ14-8" value="" style="rounded=0;whiteSpace=wrap;html=1;shadow=0;glass=0;labelBackgroundColor=default;labelBorderColor=none;sketch=0;fillColor=none;dashed=1;" vertex="1" parent="1">
          <mxGeometry x="120" y="290" width="829" height="50" as="geometry" />
        </mxCell>
        <mxCell id="t8b2_5bpY0gWvRRcbJ14-9" value="linux-fedora-35" style="rounded=0;whiteSpace=wrap;html=1;fillColor=#f9f7ed;strokeColor=#36393d;" vertex="1" parent="1">
          <mxGeometry x="130" y="300" width="759" height="30" as="geometry" />
        </mxCell>
        <mxCell id="t8b2_5bpY0gWvRRcbJ14-10" style="edgeStyle=orthogonalEdgeStyle;rounded=0;orthogonalLoop=1;jettySize=auto;html=1;entryX=0;entryY=0.5;entryDx=0;entryDy=0;strokeWidth=1;" edge="1" parent="1" source="t8b2_5bpY0gWvRRcbJ14-11" target="t8b2_5bpY0gWvRRcbJ14-12">
          <mxGeometry relative="1" as="geometry" />
        </mxCell>
        <mxCell id="t8b2_5bpY0gWvRRcbJ14-11" value="webserver&lt;br&gt;containter" style="rounded=1;whiteSpace=wrap;html=1;" vertex="1" parent="1">
          <mxGeometry x="130" y="65" width="120" height="60" as="geometry" />
        </mxCell>
        <mxCell id="t8b2_5bpY0gWvRRcbJ14-12" value="database&lt;br&gt;container" style="rounded=1;whiteSpace=wrap;html=1;" vertex="1" parent="1">
          <mxGeometry x="290" y="65" width="120" height="60" as="geometry" />
        </mxCell>
        <mxCell id="t8b2_5bpY0gWvRRcbJ14-13" style="edgeStyle=orthogonalEdgeStyle;rounded=0;orthogonalLoop=1;jettySize=auto;html=1;entryX=1;entryY=0.5;entryDx=0;entryDy=0;strokeWidth=1;" edge="1" parent="1" source="t8b2_5bpY0gWvRRcbJ14-14" target="t8b2_5bpY0gWvRRcbJ14-12">
          <mxGeometry relative="1" as="geometry" />
        </mxCell>
        <mxCell id="t8b2_5bpY0gWvRRcbJ14-14" value="database-admin-ui&lt;br&gt;container" style="rounded=1;whiteSpace=wrap;html=1;" vertex="1" parent="1">
          <mxGeometry x="450" y="65" width="120" height="60" as="geometry" />
        </mxCell>
        <mxCell id="t8b2_5bpY0gWvRRcbJ14-15" style="edgeStyle=orthogonalEdgeStyle;rounded=0;orthogonalLoop=1;jettySize=auto;html=1;entryX=0.5;entryY=0;entryDx=0;entryDy=0;startArrow=none;startFill=0;" edge="1" parent="1" source="t8b2_5bpY0gWvRRcbJ14-16" target="t8b2_5bpY0gWvRRcbJ14-22">
          <mxGeometry relative="1" as="geometry">
            <Array as="points">
              <mxPoint x="670" y="45" />
              <mxPoint x="1043" y="45" />
            </Array>
          </mxGeometry>
        </mxCell>
        <mxCell id="t8b2_5bpY0gWvRRcbJ14-16" value="backup&lt;br&gt;container" style="rounded=1;whiteSpace=wrap;html=1;" vertex="1" parent="1">
          <mxGeometry x="610" y="65" width="120" height="60" as="geometry" />
        </mxCell>
        <mxCell id="t8b2_5bpY0gWvRRcbJ14-17" value="" style="group;fillColor=#d5e8d4;strokeColor=#82b366;" vertex="1" connectable="0" parent="1">
          <mxGeometry x="145" y="180" width="584" height="60" as="geometry" />
        </mxCell>
        <mxCell id="t8b2_5bpY0gWvRRcbJ14-18" value="" style="rounded=0;whiteSpace=wrap;html=1;fillColor=#f5f5f5;fontColor=#333333;strokeColor=#666666;" vertex="1" parent="t8b2_5bpY0gWvRRcbJ14-17">
          <mxGeometry width="584" height="60" as="geometry" />
        </mxCell>
        <mxCell id="t8b2_5bpY0gWvRRcbJ14-19" value="webserver volume" style="rounded=0;whiteSpace=wrap;html=1;fillColor=#f5f5f5;strokeColor=#666666;fontColor=#333333;" vertex="1" parent="t8b2_5bpY0gWvRRcbJ14-17">
          <mxGeometry x="13.904761904761907" y="10" width="264.1904761904762" height="40" as="geometry" />
        </mxCell>
        <mxCell id="t8b2_5bpY0gWvRRcbJ14-20" value="database volume" style="rounded=0;whiteSpace=wrap;html=1;fillColor=#f5f5f5;strokeColor=#666666;fontColor=#333333;" vertex="1" parent="t8b2_5bpY0gWvRRcbJ14-17">
          <mxGeometry x="292" y="10" width="278.72727272727275" height="40" as="geometry" />
        </mxCell>
        <mxCell id="t8b2_5bpY0gWvRRcbJ14-21" value="docker" style="text;html=1;strokeColor=none;fillColor=none;align=center;verticalAlign=middle;whiteSpace=wrap;rounded=0;" vertex="1" parent="1">
          <mxGeometry x="407" y="240" width="60" height="30" as="geometry" />
        </mxCell>
        <mxCell id="t8b2_5bpY0gWvRRcbJ14-22" value="S3 (AWS)" style="rounded=1;whiteSpace=wrap;html=1;fillColor=#fff2cc;strokeColor=#d6b656;" vertex="1" parent="1">
          <mxGeometry x="983" y="65.00999999999999" width="120" height="60" as="geometry" />
        </mxCell>
        <mxCell id="t8b2_5bpY0gWvRRcbJ14-23" value="Docker Hub" style="rounded=1;whiteSpace=wrap;html=1;fillColor=#dae8fc;strokeColor=#6c8ebf;" vertex="1" parent="1">
          <mxGeometry x="983" y="190" width="120" height="60" as="geometry" />
        </mxCell>
        <mxCell id="t8b2_5bpY0gWvRRcbJ14-24" style="edgeStyle=orthogonalEdgeStyle;rounded=0;orthogonalLoop=1;jettySize=auto;html=1;strokeWidth=1;startArrow=classic;startFill=1;" edge="1" parent="1" source="t8b2_5bpY0gWvRRcbJ14-26" target="t8b2_5bpY0gWvRRcbJ14-11">
          <mxGeometry relative="1" as="geometry" />
        </mxCell>
        <mxCell id="t8b2_5bpY0gWvRRcbJ14-25" style="edgeStyle=orthogonalEdgeStyle;rounded=0;orthogonalLoop=1;jettySize=auto;html=1;entryX=0.5;entryY=0;entryDx=0;entryDy=0;" edge="1" parent="1" source="t8b2_5bpY0gWvRRcbJ14-26" target="t8b2_5bpY0gWvRRcbJ14-14">
          <mxGeometry relative="1" as="geometry">
            <Array as="points">
              <mxPoint x="47" y="50" />
              <mxPoint x="510" y="50" />
            </Array>
          </mxGeometry>
        </mxCell>
        <mxCell id="t8b2_5bpY0gWvRRcbJ14-26" value="Web browser" style="sketch=0;pointerEvents=1;shadow=0;dashed=0;html=1;strokeColor=none;fillColor=#434445;aspect=fixed;labelPosition=center;verticalLabelPosition=bottom;verticalAlign=top;align=center;outlineConnect=0;shape=mxgraph.vvd.web_browser;rounded=0;" vertex="1" parent="1">
          <mxGeometry x="10" y="68.63000000000011" width="74.3" height="52.75" as="geometry" />
        </mxCell>
        <mxCell id="t8b2_5bpY0gWvRRcbJ14-27" value="Layer 1" style="text;html=1;strokeColor=none;fillColor=none;align=center;verticalAlign=middle;whiteSpace=wrap;rounded=0;shadow=0;glass=0;dashed=1;labelBackgroundColor=default;labelBorderColor=none;sketch=0;" vertex="1" parent="1">
          <mxGeometry x="889" y="297" width="60" height="30" as="geometry" />
        </mxCell>
        <mxCell id="t8b2_5bpY0gWvRRcbJ14-28" value="Layer 2" style="text;html=1;strokeColor=none;fillColor=none;align=center;verticalAlign=middle;whiteSpace=wrap;rounded=0;shadow=0;glass=0;dashed=1;labelBackgroundColor=default;labelBorderColor=none;sketch=0;" vertex="1" parent="1">
          <mxGeometry x="889" y="250" width="60" height="30" as="geometry" />
        </mxCell>
        <mxCell id="t8b2_5bpY0gWvRRcbJ14-29" value="Layer 3" style="text;html=1;strokeColor=none;fillColor=none;align=center;verticalAlign=middle;whiteSpace=wrap;rounded=0;shadow=0;glass=0;dashed=1;labelBackgroundColor=default;labelBorderColor=none;sketch=0;" vertex="1" parent="1">
          <mxGeometry x="889" y="130" width="60" height="30" as="geometry" />
        </mxCell>
        <mxCell id="t8b2_5bpY0gWvRRcbJ14-30" value="Inside production vm" style="text;html=1;strokeColor=none;fillColor=none;align=left;verticalAlign=middle;whiteSpace=wrap;rounded=0;shadow=0;glass=0;labelBackgroundColor=default;labelBorderColor=none;sketch=0;fontStyle=1" vertex="1" parent="1">
          <mxGeometry x="3" width="190" height="30" as="geometry" />
        </mxCell>
        <mxCell id="t8b2_5bpY0gWvRRcbJ14-31" style="edgeStyle=orthogonalEdgeStyle;rounded=0;orthogonalLoop=1;jettySize=auto;html=1;entryX=0.949;entryY=0;entryDx=0;entryDy=0;entryPerimeter=0;" edge="1" parent="1" source="t8b2_5bpY0gWvRRcbJ14-34" target="t8b2_5bpY0gWvRRcbJ14-18">
          <mxGeometry relative="1" as="geometry">
            <Array as="points">
              <mxPoint x="817" y="140" />
              <mxPoint x="699" y="140" />
            </Array>
          </mxGeometry>
        </mxCell>
        <mxCell id="t8b2_5bpY0gWvRRcbJ14-32" value="mount" style="edgeLabel;html=1;align=center;verticalAlign=middle;resizable=0;points=[];" vertex="1" connectable="0" parent="t8b2_5bpY0gWvRRcbJ14-31">
          <mxGeometry x="-0.1146" y="-2" relative="1" as="geometry">
            <mxPoint as="offset" />
          </mxGeometry>
        </mxCell>
        <mxCell id="t8b2_5bpY0gWvRRcbJ14-33" style="edgeStyle=orthogonalEdgeStyle;rounded=0;orthogonalLoop=1;jettySize=auto;html=1;startArrow=classic;startFill=1;endArrow=none;endFill=0;" edge="1" parent="1" source="t8b2_5bpY0gWvRRcbJ14-34" target="t8b2_5bpY0gWvRRcbJ14-22">
          <mxGeometry relative="1" as="geometry" />
        </mxCell>
        <mxCell id="t8b2_5bpY0gWvRRcbJ14-34" value="restore&lt;br&gt;container" style="rounded=1;whiteSpace=wrap;html=1;fillColor=#bac8d3;strokeColor=#23445d;dashed=1;" vertex="1" parent="1">
          <mxGeometry x="769" y="65" width="120" height="60" as="geometry" />
        </mxCell>
        <mxCell id="t8b2_5bpY0gWvRRcbJ14-35" style="edgeStyle=orthogonalEdgeStyle;rounded=0;orthogonalLoop=1;jettySize=auto;html=1;entryX=0.5;entryY=0;entryDx=0;entryDy=0;" edge="1" parent="1" source="t8b2_5bpY0gWvRRcbJ14-12" target="t8b2_5bpY0gWvRRcbJ14-20">
          <mxGeometry relative="1" as="geometry">
            <Array as="points">
              <mxPoint x="350" y="150" />
              <mxPoint x="576" y="150" />
            </Array>
          </mxGeometry>
        </mxCell>
        <mxCell id="t8b2_5bpY0gWvRRcbJ14-36" value="mount" style="edgeLabel;html=1;align=center;verticalAlign=middle;resizable=0;points=[];" vertex="1" connectable="0" parent="t8b2_5bpY0gWvRRcbJ14-35">
          <mxGeometry x="-0.3308" y="4" relative="1" as="geometry">
            <mxPoint as="offset" />
          </mxGeometry>
        </mxCell>
        <mxCell id="t8b2_5bpY0gWvRRcbJ14-37" style="edgeStyle=orthogonalEdgeStyle;rounded=0;orthogonalLoop=1;jettySize=auto;html=1;entryX=0.887;entryY=0.091;entryDx=0;entryDy=0;entryPerimeter=0;" edge="1" parent="1" source="t8b2_5bpY0gWvRRcbJ14-16" target="t8b2_5bpY0gWvRRcbJ14-4">
          <mxGeometry relative="1" as="geometry" />
        </mxCell>
        <mxCell id="t8b2_5bpY0gWvRRcbJ14-38" value="mount" style="edgeLabel;html=1;align=center;verticalAlign=middle;resizable=0;points=[];" vertex="1" connectable="0" parent="t8b2_5bpY0gWvRRcbJ14-37">
          <mxGeometry x="-0.3479" y="1" relative="1" as="geometry">
            <mxPoint x="-1" y="-4" as="offset" />
          </mxGeometry>
        </mxCell>
        <mxCell id="t8b2_5bpY0gWvRRcbJ14-39" style="edgeStyle=orthogonalEdgeStyle;rounded=0;orthogonalLoop=1;jettySize=auto;html=1;" edge="1" parent="1" source="t8b2_5bpY0gWvRRcbJ14-11" target="t8b2_5bpY0gWvRRcbJ14-19">
          <mxGeometry relative="1" as="geometry">
            <Array as="points">
              <mxPoint x="190" y="150" />
              <mxPoint x="291" y="150" />
            </Array>
          </mxGeometry>
        </mxCell>
        <mxCell id="t8b2_5bpY0gWvRRcbJ14-40" value="mount" style="edgeLabel;html=1;align=center;verticalAlign=middle;resizable=0;points=[];" vertex="1" connectable="0" parent="t8b2_5bpY0gWvRRcbJ14-39">
          <mxGeometry x="-0.2711" y="3" relative="1" as="geometry">
            <mxPoint x="1" as="offset" />
          </mxGeometry>
        </mxCell>
      </root>
    </mxGraphModel>
  </diagram>
  <diagram id="bfxmqqGwSZ5S35Dk3m0o" name="Deployment, development and runtime flows">
    <mxGraphModel dx="1434" dy="701" grid="1" gridSize="10" guides="1" tooltips="1" connect="1" arrows="1" fold="1" page="1" pageScale="1" pageWidth="827" pageHeight="1169" math="0" shadow="0">
      <root>
        <mxCell id="0" />
        <mxCell id="1" parent="0" />
        <mxCell id="AlAmfRIlPn9H9i4JKlkq-1" value="" style="rounded=0;whiteSpace=wrap;html=1;shadow=0;glass=0;labelBackgroundColor=default;labelBorderColor=none;sketch=0;fillColor=default;" parent="1" vertex="1">
          <mxGeometry width="990" height="360" as="geometry" />
        </mxCell>
        <mxCell id="AlAmfRIlPn9H9i4JKlkq-2" style="edgeStyle=orthogonalEdgeStyle;rounded=0;orthogonalLoop=1;jettySize=auto;html=1;entryX=0;entryY=0.5;entryDx=0;entryDy=0;fillColor=#d5e8d4;strokeColor=#82b366;strokeWidth=2;exitX=0.25;exitY=1;exitDx=0;exitDy=0;" parent="1" source="AlAmfRIlPn9H9i4JKlkq-20" target="AlAmfRIlPn9H9i4JKlkq-19" edge="1">
          <mxGeometry relative="1" as="geometry">
            <Array as="points">
              <mxPoint x="111" y="250" />
              <mxPoint x="110" y="280" />
            </Array>
          </mxGeometry>
        </mxCell>
        <mxCell id="AlAmfRIlPn9H9i4JKlkq-3" value="3. push images" style="edgeLabel;html=1;align=center;verticalAlign=middle;resizable=0;points=[];" parent="AlAmfRIlPn9H9i4JKlkq-2" vertex="1" connectable="0">
          <mxGeometry x="-0.1412" y="1" relative="1" as="geometry">
            <mxPoint x="64" as="offset" />
          </mxGeometry>
        </mxCell>
        <mxCell id="AlAmfRIlPn9H9i4JKlkq-4" style="edgeStyle=orthogonalEdgeStyle;rounded=0;orthogonalLoop=1;jettySize=auto;html=1;entryX=0;entryY=0.5;entryDx=0;entryDy=0;fillColor=#d5e8d4;strokeColor=#82b366;strokeWidth=2;exitX=0.75;exitY=1;exitDx=0;exitDy=0;" parent="1" source="AlAmfRIlPn9H9i4JKlkq-20" target="AlAmfRIlPn9H9i4JKlkq-16" edge="1">
          <mxGeometry relative="1" as="geometry">
            <Array as="points">
              <mxPoint x="171" y="210" />
            </Array>
          </mxGeometry>
        </mxCell>
        <mxCell id="AlAmfRIlPn9H9i4JKlkq-5" value="4. deploy" style="edgeLabel;html=1;align=center;verticalAlign=middle;resizable=0;points=[];" parent="AlAmfRIlPn9H9i4JKlkq-4" vertex="1" connectable="0">
          <mxGeometry x="-0.6338" y="1" relative="1" as="geometry">
            <mxPoint x="48" y="1" as="offset" />
          </mxGeometry>
        </mxCell>
        <mxCell id="AlAmfRIlPn9H9i4JKlkq-6" style="edgeStyle=orthogonalEdgeStyle;rounded=0;orthogonalLoop=1;jettySize=auto;html=1;entryX=1;entryY=0.5;entryDx=0;entryDy=0;strokeWidth=1;startArrow=none;startFill=0;fillColor=#dae8fc;strokeColor=#6c8ebf;" parent="1" source="AlAmfRIlPn9H9i4JKlkq-8" target="AlAmfRIlPn9H9i4JKlkq-20" edge="1">
          <mxGeometry relative="1" as="geometry" />
        </mxCell>
        <mxCell id="AlAmfRIlPn9H9i4JKlkq-7" value="1. push&amp;nbsp;&lt;br&gt;code" style="edgeLabel;html=1;align=center;verticalAlign=middle;resizable=0;points=[];" parent="AlAmfRIlPn9H9i4JKlkq-6" vertex="1" connectable="0">
          <mxGeometry x="-0.1833" y="-4" relative="1" as="geometry">
            <mxPoint x="-7" y="4" as="offset" />
          </mxGeometry>
        </mxCell>
        <mxCell id="AlAmfRIlPn9H9i4JKlkq-8" value="local pc" style="rounded=1;whiteSpace=wrap;html=1;fillColor=#d5e8d4;strokeColor=#82b366;" parent="1" vertex="1">
          <mxGeometry x="330" y="130" width="120" height="60" as="geometry" />
        </mxCell>
        <mxCell id="AlAmfRIlPn9H9i4JKlkq-9" style="edgeStyle=orthogonalEdgeStyle;rounded=0;orthogonalLoop=1;jettySize=auto;html=1;entryX=0.75;entryY=0;entryDx=0;entryDy=0;exitX=0;exitY=0.75;exitDx=0;exitDy=0;fillColor=#dae8fc;strokeColor=#6c8ebf;dashed=1;strokeWidth=1;" parent="1" source="AlAmfRIlPn9H9i4JKlkq-13" target="AlAmfRIlPn9H9i4JKlkq-8" edge="1">
          <mxGeometry relative="1" as="geometry" />
        </mxCell>
        <mxCell id="AlAmfRIlPn9H9i4JKlkq-10" value="b1. restore backup" style="edgeLabel;html=1;align=center;verticalAlign=middle;resizable=0;points=[];" parent="AlAmfRIlPn9H9i4JKlkq-9" vertex="1" connectable="0">
          <mxGeometry x="0.5713" relative="1" as="geometry">
            <mxPoint x="111" y="-6" as="offset" />
          </mxGeometry>
        </mxCell>
        <mxCell id="AlAmfRIlPn9H9i4JKlkq-11" style="edgeStyle=orthogonalEdgeStyle;rounded=0;orthogonalLoop=1;jettySize=auto;html=1;entryX=1;entryY=0.75;entryDx=0;entryDy=0;exitX=1;exitY=0.25;exitDx=0;exitDy=0;fillColor=#dae8fc;strokeColor=#6c8ebf;dashed=1;strokeWidth=1;" parent="1" source="AlAmfRIlPn9H9i4JKlkq-13" target="AlAmfRIlPn9H9i4JKlkq-16" edge="1">
          <mxGeometry relative="1" as="geometry">
            <Array as="points">
              <mxPoint x="900" y="35" />
              <mxPoint x="900" y="225" />
            </Array>
          </mxGeometry>
        </mxCell>
        <mxCell id="AlAmfRIlPn9H9i4JKlkq-12" value="a1. restore backup" style="edgeLabel;html=1;align=center;verticalAlign=middle;resizable=0;points=[];" parent="AlAmfRIlPn9H9i4JKlkq-11" vertex="1" connectable="0">
          <mxGeometry x="0.0907" y="2" relative="1" as="geometry">
            <mxPoint y="-66" as="offset" />
          </mxGeometry>
        </mxCell>
        <mxCell id="AlAmfRIlPn9H9i4JKlkq-13" value="S3 (AWS)" style="rounded=1;whiteSpace=wrap;html=1;fillColor=#fff2cc;strokeColor=#d6b656;" parent="1" vertex="1">
          <mxGeometry x="652" y="20" width="120" height="60" as="geometry" />
        </mxCell>
        <mxCell id="AlAmfRIlPn9H9i4JKlkq-14" style="edgeStyle=orthogonalEdgeStyle;rounded=0;orthogonalLoop=1;jettySize=auto;html=1;entryX=1;entryY=0.75;entryDx=0;entryDy=0;fillColor=#d5e8d4;strokeColor=#82b366;strokeWidth=2;exitX=1;exitY=0.25;exitDx=0;exitDy=0;" parent="1" source="AlAmfRIlPn9H9i4JKlkq-16" target="AlAmfRIlPn9H9i4JKlkq-13" edge="1">
          <mxGeometry relative="1" as="geometry">
            <Array as="points">
              <mxPoint x="831" y="195" />
              <mxPoint x="831" y="65" />
            </Array>
          </mxGeometry>
        </mxCell>
        <mxCell id="AlAmfRIlPn9H9i4JKlkq-15" value="6. save backup" style="edgeLabel;html=1;align=center;verticalAlign=middle;resizable=0;points=[];" parent="AlAmfRIlPn9H9i4JKlkq-14" vertex="1" connectable="0">
          <mxGeometry x="-0.1675" relative="1" as="geometry">
            <mxPoint x="10" y="6" as="offset" />
          </mxGeometry>
        </mxCell>
        <mxCell id="AlAmfRIlPn9H9i4JKlkq-16" value="VM (Production)" style="rounded=1;whiteSpace=wrap;html=1;fillColor=#f8cecc;strokeColor=#b85450;" parent="1" vertex="1">
          <mxGeometry x="652" y="180" width="120" height="60" as="geometry" />
        </mxCell>
        <mxCell id="AlAmfRIlPn9H9i4JKlkq-17" style="edgeStyle=orthogonalEdgeStyle;rounded=0;orthogonalLoop=1;jettySize=auto;html=1;entryX=0.25;entryY=1;entryDx=0;entryDy=0;fillColor=#d5e8d4;strokeColor=#82b366;strokeWidth=2;" parent="1" source="AlAmfRIlPn9H9i4JKlkq-19" target="AlAmfRIlPn9H9i4JKlkq-16" edge="1">
          <mxGeometry relative="1" as="geometry">
            <Array as="points">
              <mxPoint x="682" y="280" />
            </Array>
          </mxGeometry>
        </mxCell>
        <mxCell id="AlAmfRIlPn9H9i4JKlkq-18" value="5. fetch images" style="edgeLabel;html=1;align=center;verticalAlign=middle;resizable=0;points=[];" parent="AlAmfRIlPn9H9i4JKlkq-17" vertex="1" connectable="0">
          <mxGeometry x="-0.2048" relative="1" as="geometry">
            <mxPoint as="offset" />
          </mxGeometry>
        </mxCell>
        <mxCell id="AlAmfRIlPn9H9i4JKlkq-19" value="Docker Hub" style="rounded=1;whiteSpace=wrap;html=1;fillColor=#dae8fc;strokeColor=#6c8ebf;" parent="1" vertex="1">
          <mxGeometry x="330" y="250" width="120" height="60" as="geometry" />
        </mxCell>
        <mxCell id="AlAmfRIlPn9H9i4JKlkq-20" value="BitBucket" style="rounded=1;whiteSpace=wrap;html=1;fillColor=#e1d5e7;strokeColor=#9673a6;" parent="1" vertex="1">
          <mxGeometry x="80.5" y="130" width="120" height="60" as="geometry" />
        </mxCell>
        <mxCell id="AlAmfRIlPn9H9i4JKlkq-21" value="Development, deployment and runtime flows" style="text;html=1;strokeColor=none;fillColor=none;align=center;verticalAlign=middle;whiteSpace=wrap;rounded=0;shadow=0;glass=0;labelBackgroundColor=default;labelBorderColor=none;sketch=0;fontStyle=1" parent="1" vertex="1">
          <mxGeometry width="281" height="30" as="geometry" />
        </mxCell>
        <mxCell id="AlAmfRIlPn9H9i4JKlkq-22" style="edgeStyle=orthogonalEdgeStyle;rounded=0;orthogonalLoop=1;jettySize=auto;html=1;entryX=0;entryY=0.25;entryDx=0;entryDy=0;fillColor=#f8cecc;strokeColor=#b85450;dashed=1;strokeWidth=1;" parent="1" source="AlAmfRIlPn9H9i4JKlkq-8" target="AlAmfRIlPn9H9i4JKlkq-13" edge="1">
          <mxGeometry relative="1" as="geometry">
            <Array as="points">
              <mxPoint x="360" y="35" />
            </Array>
          </mxGeometry>
        </mxCell>
        <mxCell id="AlAmfRIlPn9H9i4JKlkq-23" value="b.2 store backup" style="edgeLabel;html=1;align=center;verticalAlign=middle;resizable=0;points=[];" parent="AlAmfRIlPn9H9i4JKlkq-22" vertex="1" connectable="0">
          <mxGeometry x="-0.7246" y="1" relative="1" as="geometry">
            <mxPoint x="64" y="-47" as="offset" />
          </mxGeometry>
        </mxCell>
        <mxCell id="WGBkJquGy05nNW05edwp-1" style="edgeStyle=orthogonalEdgeStyle;rounded=0;orthogonalLoop=1;jettySize=auto;html=1;entryX=0;entryY=0.5;entryDx=0;entryDy=0;" edge="1" parent="1" source="AlAmfRIlPn9H9i4JKlkq-20" target="AlAmfRIlPn9H9i4JKlkq-20">
          <mxGeometry relative="1" as="geometry">
            <Array as="points">
              <mxPoint x="141" y="110" />
              <mxPoint x="30" y="110" />
              <mxPoint x="30" y="160" />
            </Array>
          </mxGeometry>
        </mxCell>
        <mxCell id="WGBkJquGy05nNW05edwp-2" value="2. build" style="edgeLabel;html=1;align=center;verticalAlign=middle;resizable=0;points=[];" vertex="1" connectable="0" parent="WGBkJquGy05nNW05edwp-1">
          <mxGeometry x="-0.1429" y="2" relative="1" as="geometry">
            <mxPoint x="19" y="-2" as="offset" />
          </mxGeometry>
        </mxCell>
      </root>
    </mxGraphModel>
  </diagram>
</mxfile>
